#!OML:ASF X:\für Bonn\!DataBase\2005_08_10_Bjorn_Final\c3d\bjorn.ASF
:FULLY-SPECIFIED
:DEGREES
33
root 1.06529 17.5669 2.2 -166.395 -3.90601 -181.989
lowerback 13.7941 1.1448 3.2384
upperback 7.33286 0.918727 -0.951028
thorax 0.083072 0.168086 -2.93994
lowerneck -12.9963 -1.78322 -0.206697
upperneck -4.05467 -2.9223 -1.07951
head 0.880371 -1.73164 -0.438815
rclavicle -3.89618e-014 1.31198e-014
rhumerus 79.3603 -0.448327 -60.6992
rradius 13.9063
rwrist 36.023
rhand -18.0875 9.04803
rfingers 7.12502
rthumb 8.1859 -20.7734
lclavicle -3.89618e-014 1.31198e-014
lhumerus 82.1787 -9.01572 62.1147
lradius 12.0786
lwrist -42.8503
lhand -24.0816 -8.24522
lfingers 7.12502
lthumb 2.39856 21.721
rfemur 133.663 -173.124 -164.138
rtibia 63.6625
rfoot -29.5887 2.23534
rtoes -19.9478
lfemur -46.2969 3.70302 -19.9054
ltibia 62.5796
lfoot -24.5143 0.203366
ltoes -20.1416
34
root 1.06592 17.3966 2.26021 -166.151 -3.89095 -181.869
lowerback 14.4767 1.14434 3.34421
upperback 7.46863 0.89808 -0.873192
thorax -0.134565 0.135405 -2.92432
lowerneck -13.5873 -1.66346 -0.0421495
upperneck -4.53759 -2.87127 -1.27463
head 0.819046 -1.74837 -0.529053
rclavicle 2.24627e-014 -9.14409e-015
rhumerus 79.627 -0.825369 -60.3549
rradius 14.5456
rwrist 35.9764
rhand -18.4389 9.08807
rfingers 7.12502
rthumb 7.84676 -20.7463
lclavicle 2.24627e-014 -9.14409e-015
lhumerus 82.5384 -8.67217 61.6388
lradius 12.4177
lwrist -42.0774
lhand -24.2052 -8.31741
lfingers 7.12502
lthumb 2.2792 21.6502
rfemur 131.874 -172.899 -163.943
rtibia 65.9104
rfoot -30.1856 2.46799
rtoes -20.3797
lfemur -48.1354 3.80604 -19.8303
ltibia 64.9697
lfoot -25.0151 0.2236
ltoes -20.1253
35
root 1.06674 17.2174 2.3195 -165.942 -3.90871 -181.779
lowerback 15.1743 1.13905 3.46147
upperback 7.61719 0.869774 -0.819374
thorax -0.344106 0.0981641 -2.93887
lowerneck -14.1807 -1.55079 0.146266
upperneck -4.97861 -2.83653 -1.4744
head 0.770976 -1.77485 -0.626263
rclavicle -1.98785e-014 9.93923e-015
rhumerus 80.1134 -1.28041 -60.6104
rradius 14.7896
rwrist 36.3972
rhand -18.9484 9.36943
rfingers 7.12502
rthumb 7.35492 -20.4827
lclavicle -1.98785e-014 9.93923e-015
lhumerus 82.9518 -8.35477 61.1855
lradius 12.6925
lwrist -41.4578
lhand -24.485 -8.45616
lfingers 7.12502
lthumb 2.00895 21.5141
rfemur 130.076 -172.611 -163.769
rtibia 68.2372
rfoot -30.7651 2.725
rtoes -20.9034
lfemur -49.994 3.92821 -19.7851
ltibia 67.4444
lfoot -25.4917 0.134266
ltoes -19.9959
36
root 1.06773 17.029 2.37668 -165.775 -3.91548 -181.666
lowerback 15.9025 1.13002 3.55759
upperback 7.73504 0.840181 -0.74044
thorax -0.601543 0.058763 -2.91461
lowerneck -14.6677 -1.42875 0.337566
upperneck -5.38433 -2.78681 -1.69564
head 0.716248 -1.79219 -0.728906
rclavicle 1.51076e-014 -1.51076e-014
rhumerus 80.5729 -1.65709 -60.4172
rradius 15.0743
rwrist 36.2381
rhand -19.3808 9.58438
rfingers 7.12502
rthumb 6.93754 -20.2819
lclavicle 1.51076e-014 -1.51076e-014
lhumerus 83.3173 -8.03065 60.538
lradius 12.9183
lwrist -40.72
lhand -24.8467 -8.58981
lfingers 7.12502
lthumb 1.65958 21.3835
rfemur 128.27 -172.316 -163.574
rtibia 70.6361
rfoot -31.3504 3.04163
rtoes -21.4877
lfemur -51.855 4.09852 -19.7254
ltibia 70.0069
lfoot -25.9786 0.0700594
ltoes -20.05
37
root 1.06891 16.8291 2.43278 -165.652 -3.94247 -181.554
lowerback 16.6116 1.12395 3.67126
upperback 7.86587 0.81477 -0.6647
thorax -0.831869 0.0213314 -2.90328
lowerneck -15.1658 -1.31422 0.524279
upperneck -5.71658 -2.74382 -1.91637
head 0.687211 -1.81193 -0.832491
rclavicle 1.55052e-014 -3.97569e-016
rhumerus 80.9961 -2.04383 -60.3226
rradius 15.3377
rwrist 36.1077
rhand -19.8426 9.83827
rfingers 7.12502
rthumb 6.49172 -20.0422
lclavicle 1.55052e-014 -3.97569e-016
lhumerus 83.6956 -7.73921 60.0572
lradius 13.0521
lwrist -40.1859
lhand -25.3115 -8.83587
lfingers 7.12502
lthumb 1.21074 21.1404
rfemur 126.462 -171.975 -163.38
rtibia 73.1109
rfoot -31.8997 3.40622
rtoes -22.0676
lfemur -53.7379 4.27561 -19.6593
ltibia 72.6541
lfoot -26.4194 -0.014466
ltoes -20.0299
38
root 1.07041 16.618 2.48646 -165.582 -3.97478 -181.447
lowerback 17.3874 1.10549 3.79626
upperback 7.93201 0.788686 -0.615646
thorax -1.16302 -0.0153283 -2.9266
lowerneck -15.5166 -1.21348 0.747005
upperneck -5.97907 -2.70901 -2.11979
head 0.656271 -1.82864 -0.935872
rclavicle -1.59028e-015 3.18055e-015
rhumerus 81.2963 -2.36422 -60.459
rradius 15.5404
rwrist 36.1634
rhand -20.2679 10.1329
rfingers 7.12502
rthumb 6.08119 -19.7598
lclavicle -1.59028e-015 3.18055e-015
lhumerus 83.9816 -7.52616 59.2827
lradius 13.1867
lwrist -39.3897
lhand -25.8115 -9.06689
lfingers 7.12502
lthumb 0.727773 20.9116
rfemur 124.658 -171.595 -163.186
rtibia 75.6759
rfoot -32.4627 3.76934
rtoes -22.7813
lfemur -55.6262 4.501 -19.6112
ltibia 75.3873
lfoot -26.8855 -0.139434
ltoes -20.0976
39
root 1.07143 16.3995 2.53856 -165.57 -4.02658 -181.333
lowerback 18.1673 1.08351 3.92167
upperback 8.01031 0.756916 -0.546627
thorax -1.48157 -0.0566807 -2.92723
lowerneck -15.8728 -1.10362 0.968675
upperneck -6.16952 -2.65619 -2.33956
head 0.650143 -1.83455 -1.04501
rclavicle -7.55382e-015 3.57812e-015
rhumerus 81.5262 -2.65068 -60.3572
rradius 15.7733
rwrist 35.935
rhand -20.6285 10.4214
rfingers 7.12502
rthumb 5.73306 -19.4811
lclavicle -7.55382e-015 3.57812e-015
lhumerus 84.1917 -7.30281 58.6346
lradius 13.3376
lwrist -38.7076
lhand -26.3525 -9.36786
lfingers 7.12502
lthumb 0.205243 20.6118
rfemur 122.862 -171.193 -162.999
rtibia 78.3174
rfoot -33.0042 4.14501
rtoes -23.6948
lfemur -57.4909 4.7174 -19.553
ltibia 78.1713
lfoot -27.285 -0.200542
ltoes -20.4216
40
root 1.07338 16.1709 2.58919 -165.606 -4.0777 -181.238
lowerback 18.9559 1.0646 4.04482
upperback 8.10017 0.726485 -0.503512
thorax -1.78906 -0.0983828 -2.95343
lowerneck -16.1844 -0.998055 1.18573
upperneck -6.36153 -2.60614 -2.50217
head 0.63679 -1.83929 -1.13484
rclavicle 7.55382e-015 -3.57812e-015
rhumerus 81.7023 -2.94153 -60.0658
rradius 15.9872
rwrist 35.5545
rhand -20.9097 10.656
rfingers 7.12502
rthumb 5.46154 -19.2536
lclavicle 7.55382e-015 -3.57812e-015
lhumerus 84.2909 -7.12571 58.2604
lradius 13.6065
lwrist -38.2249
lhand -26.8395 -9.7231
lfingers 7.12502
lthumb -0.265047 20.2565
rfemur 121.049 -170.752 -162.836
rtibia 81.0432
rfoot -33.485 4.56712
rtoes -24.7803
lfemur -59.3495 4.96478 -19.5184
ltibia 80.9978
lfoot -27.6715 -0.240581
ltoes -21.0206
41
root 1.07544 15.9347 2.6378 -165.705 -4.14464 -181.145
lowerback 19.7822 1.03691 4.15303
upperback 8.19059 0.682943 -0.434989
thorax -2.11442 -0.149544 -2.94083
lowerneck -16.4528 -0.898975 1.30128
upperneck -6.52596 -2.54121 -2.59
head 0.627023 -1.83058 -1.18225
rclavicle 1.19271e-015 -1.78906e-014
rhumerus 81.8453 -3.1696 -59.8172
rradius 16.1846
rwrist 35.2406
rhand -21.0873 10.9079
rfingers 7.12502
rthumb 5.29003 -19.0061
lclavicle 1.19271e-015 -1.78906e-014
lhumerus 84.2434 -6.94949 58.1287
lradius 13.9601
lwrist -37.8774
lhand -27.3015 -9.95629
lfingers 7.12502
lthumb -0.711258 20.0223
rfemur 119.273 -170.288 -162.689
rtibia 83.8103
rfoot -33.9163 5.01812
rtoes -26.0032
lfemur -61.1675 5.22808 -19.4874
ltibia 83.8339
lfoot -27.9795 -0.289495
ltoes -21.6142
